
<svg width="19px" height="20px" viewBox="1059 253 19 20" version="1.1" xmlns="http://www.w3.org/2000/svg" xmlns:xlink="http://www.w3.org/1999/xlink">
    <!-- Generator: Sketch 41 (35326) - http://www.bohemiancoding.com/sketch -->
    <desc>Created with Sketch.</desc>
    <defs></defs>
    <g id="Calendar" stroke="none" stroke-width="1" fill="none" fill-rule="evenodd" transform="translate(1059.000000, 253.729318)">
        <path d="M15.8808589,18.0768014 L2.94067672,18.0768014 C1.29416879,18.0768014 0,16.7511693 0,15.0640012 L0,4.21792032 C0,2.53075219 1.29416879,1.20512009 2.94067672,1.20512009 L5.29336867,1.20512009 L5.29336867,0.602560046 C5.29336867,0.241024018 5.5290143,0 5.8821063,0 C6.23444545,0 6.47009108,0.241024018 6.47009108,0.602560046 L6.47009108,1.20512009 L12.3514445,1.20512009 L12.3514445,0.602560046 C12.3514445,0.241024018 12.5870901,0 12.9394293,0 C13.2925213,0 13.5281669,0.241024018 13.5281669,0.602560046 L13.5281669,1.20512009 L15.8808589,1.20512009 C17.5273668,1.20512009 18.8215356,2.53075219 18.8215356,4.21792032 L18.8215356,15.0640012 C18.8215356,16.7511693 17.5273668,18.0768014 15.8808589,18.0768014 L15.8808589,18.0768014 Z M1.17596954,15.0640012 C1.17596954,16.0280972 1.99959994,16.8716813 2.94067672,16.8716813 L15.8808589,16.8716813 C16.8219357,16.8716813 17.645566,16.0280972 17.645566,15.0640012 L17.645566,7.23072055 L1.17596954,7.23072055 L1.17596954,15.0640012 L1.17596954,15.0640012 Z M17.645566,4.21792032 C17.645566,3.25382425 16.8219357,2.41024018 15.8808589,2.41024018 L13.5281669,2.41024018 L13.5281669,3.01280023 C13.5281669,3.37433626 13.2925213,3.61536028 12.9401822,3.61536028 C12.5870901,3.61536028 12.3514445,3.37433626 12.3514445,3.01280023 L12.3514445,2.41024018 L6.47009108,2.41024018 L6.47009108,3.01280023 C6.47009108,3.37433626 6.23444545,3.61536028 5.8821063,3.61536028 C5.5290143,3.61536028 5.29336867,3.37433626 5.29336867,3.01280023 L5.29336867,2.41024018 L2.94067672,2.41024018 C1.99959994,2.41024018 1.17596954,3.25382425 1.17596954,4.21792032 L1.17596954,6.02560046 L17.645566,6.02560046 L17.645566,4.21792032 L17.645566,4.21792032 Z M14.7041365,15.0640012 C14.3517973,15.0640012 14.1161517,14.9434891 13.8812589,14.7024651 C13.6456133,14.4614411 13.5281669,14.0999051 13.5281669,13.8588811 C13.5281669,13.497345 13.6456133,13.256321 13.8812589,13.015297 C14.3517973,12.533249 15.0572285,12.533249 15.5277669,13.015297 C15.7634125,13.256321 15.8808589,13.617857 15.8808589,13.8588811 C15.8808589,14.0999051 15.7634125,14.4614411 15.5277669,14.7024651 C15.2928741,14.9434891 15.0572285,15.0640012 14.7041365,15.0640012 L14.7041365,15.0640012 Z M14.7041365,11.4486409 C14.3517973,11.4486409 14.1161517,11.3281289 13.8812589,11.0871049 C13.6456133,10.8460808 13.5281669,10.4845448 13.5281669,10.2435208 C13.5281669,10.0024968 13.6456133,9.64096074 13.8812589,9.39993672 C14.3517973,8.91788868 15.0572285,8.91788868 15.5277669,9.39993672 C15.7634125,9.64096074 15.8808589,10.0024968 15.8808589,10.2435208 C15.8808589,10.6050568 15.7634125,10.8460808 15.5277669,11.0871049 C15.2928741,11.3281289 15.0572285,11.4486409 14.7041365,11.4486409 L14.7041365,11.4486409 Z M11.175475,15.0640012 C10.822383,15.0640012 10.5867373,14.9434891 10.3518446,14.7024651 C10.1161989,14.4614411 9.99875257,14.0999051 9.99875257,13.8588811 C9.99875257,13.617857 10.1161989,13.256321 10.3518446,13.015297 C10.822383,12.533249 11.528567,12.533249 11.9983525,13.015297 C12.2339981,13.256321 12.3514445,13.497345 12.3514445,13.8588811 C12.3514445,14.2204171 12.2339981,14.4614411 11.9983525,14.7024651 C11.7634597,14.9434891 11.5278141,15.0640012 11.175475,15.0640012 L11.175475,15.0640012 Z M11.175475,11.4486409 C10.822383,11.4486409 10.5867373,11.3281289 10.3518446,11.0871049 C10.1161989,10.8460808 9.99875257,10.4845448 9.99875257,10.2435208 C9.99875257,10.0024968 10.1161989,9.64096074 10.3518446,9.39993672 C10.822383,8.91788868 11.528567,8.91788868 11.9983525,9.39993672 C12.2339981,9.64096074 12.3514445,10.0024968 12.3514445,10.2435208 C12.3514445,10.6050568 12.2339981,10.8460808 11.9983525,11.0871049 C11.7634597,11.3281289 11.5278141,11.4486409 11.175475,11.4486409 L11.175475,11.4486409 Z M7.64606062,15.0640012 C7.29372147,15.0640012 7.05807585,14.9434891 6.82318308,14.7024651 C6.58753746,14.4614411 6.47009108,14.0999051 6.47009108,13.8588811 C6.47009108,13.617857 6.58753746,13.256321 6.82318308,13.015297 C7.29372147,12.533249 7.99915263,12.533249 8.46969102,13.015297 C8.70533664,13.256321 8.82278302,13.617857 8.82278302,13.8588811 C8.82278302,14.0999051 8.70533664,14.4614411 8.46969102,14.7024651 C8.23479825,14.9434891 7.99915263,15.0640012 7.64606062,15.0640012 L7.64606062,15.0640012 Z M7.64606062,11.4486409 C7.29372147,11.4486409 7.05807585,11.3281289 6.82318308,11.0871049 C6.58753746,10.8460808 6.47009108,10.4845448 6.47009108,10.2435208 C6.47009108,10.0024968 6.58753746,9.64096074 6.82318308,9.39993672 C7.29372147,8.91788868 7.99915263,8.91788868 8.46969102,9.39993672 C8.70533664,9.64096074 8.82278302,10.0024968 8.82278302,10.2435208 C8.82278302,10.4845448 8.70533664,10.8460808 8.46969102,11.0871049 C8.23479825,11.3281289 7.99915263,11.4486409 7.64606062,11.4486409 L7.64606062,11.4486409 Z M4.11739913,15.0640012 C3.76430712,15.0640012 3.52866149,14.9434891 3.29376873,14.7024651 C3.0581231,14.4614411 2.94067672,14.0999051 2.94067672,13.8588811 C2.94067672,13.497345 3.0581231,13.256321 3.29376873,13.015297 C3.76430712,12.533249 4.47049113,12.533249 4.94102952,13.015297 C5.17592229,13.256321 5.29336867,13.617857 5.29336867,13.8588811 C5.29336867,14.0999051 5.17592229,14.4614411 4.94102952,14.7024651 C4.7053839,14.9434891 4.46973827,15.0640012 4.11739913,15.0640012 L4.11739913,15.0640012 Z M4.11739913,11.4486409 C3.76430712,11.4486409 3.52866149,11.3281289 3.29376873,11.0871049 C3.0581231,10.8460808 2.94067672,10.6050568 2.94067672,10.2435208 C2.94067672,9.88198476 3.0581231,9.64096074 3.29376873,9.39993672 C3.76430712,8.91788868 4.47049113,8.91788868 4.94102952,9.39993672 C5.17592229,9.64096074 5.29336867,10.0024968 5.29336867,10.2435208 C5.29336867,10.4845448 5.17592229,10.8460808 4.94102952,11.0871049 C4.7053839,11.3281289 4.46973827,11.4486409 4.11739913,11.4486409 L4.11739913,11.4486409 Z" id="Shape" fill="#96B647"></path>
    </g>
</svg>