<?xml version="1.0" encoding="iso-8859-1"?>
<!-- Generator: Adobe Illustrator 19.0.0, SVG Export Plug-In . SVG Version: 6.00 Build 0)  -->
<svg version="1.1" id="Layer_1" xmlns="http://www.w3.org/2000/svg" xmlns:xlink="http://www.w3.org/1999/xlink" x="0px" y="0px"
	 viewBox="0 0 500.004 500.004" style="enable-background:new 0 0 500.004 500.004;" xml:space="preserve">
<g>
	<g>
		<path d="M304.84,0.002c-107.608,0-195.16,87.548-195.16,195.16c0,43.516,14.772,86.112,41.664,120.352l-65.76,65.768L40,335.69
			c-4.424-4.428-10.312-6.864-16.572-6.864c-6.26,0-12.14,2.432-16.568,6.864C2.436,340.118,0,346.002,0,352.258
			c0,6.256,2.436,12.144,6.864,16.564l45.588,45.592L6.864,460.002C2.44,464.422,0,470.31,0,476.57
			c0,6.256,2.436,12.144,6.864,16.564c4.424,4.428,10.308,6.868,16.568,6.868s12.144-2.436,16.572-6.868l45.584-45.584
			l45.592,45.584c4.42,4.428,10.304,6.868,16.568,6.868c6.256,0,12.14-2.436,16.568-6.868c4.428-4.42,6.868-10.308,6.868-16.564
			c0-6.26-2.436-12.148-6.868-16.568l-45.588-45.588l65.76-65.76c34.244,26.892,76.836,41.664,120.356,41.664
			c107.612,0,195.16-87.552,195.16-195.156C500,87.55,412.452,0.002,304.84,0.002z M304.84,343.454
			c-81.768,0-148.296-66.52-148.296-148.292s66.528-148.3,148.296-148.3c81.772,0,148.3,66.528,148.3,148.3
			S386.612,343.454,304.84,343.454z"/>
	</g>
</g>
<g>
</g>
<g>
</g>
<g>
</g>
<g>
</g>
<g>
</g>
<g>
</g>
<g>
</g>
<g>
</g>
<g>
</g>
<g>
</g>
<g>
</g>
<g>
</g>
<g>
</g>
<g>
</g>
<g>
</g>
</svg>
