
<svg width="20px" height="22px" viewBox="121 133 20 22" version="1.1" xmlns="http://www.w3.org/2000/svg" xmlns:xlink="http://www.w3.org/1999/xlink">
    <!-- Generator: Sketch 41 (35326) - http://www.bohemiancoding.com/sketch -->
    <desc>Created with Sketch.</desc>
    <defs>
        <polygon id="path-1" points="8.03212833e-06 19.9599198 19.9995181 19.9599198 19.9995181 0.000480961924 8.03212834e-06 0.000480961924"></polygon>
    </defs>
    <g id="Page-1" stroke="none" stroke-width="1" fill="none" fill-rule="evenodd" transform="translate(121.000000, 133.500000)">
        <g id="Group-3" transform="translate(0.000000, 0.039599)">
            <mask id="mask-2" fill="white">
                <use xlink:href="#path-1"></use>
            </mask>
            <g id="Clip-2"></g>
            <path d="M9.99976707,1.63648497 C14.6171566,1.63648497 18.3602088,5.37207615 18.3602088,9.98017234 C18.3602088,14.5883086 14.6171566,18.3238998 9.99976707,18.3238998 C5.38237751,18.3238998 1.6393253,14.5883086 1.6393253,9.98017234 C1.6393253,5.37207615 5.38237751,1.63648497 9.99976707,1.63648497 M9.99976707,19.9599319 C15.5187631,19.9599319 19.9995261,15.4881483 19.9995261,9.98017234 C19.9995261,4.47223647 15.5187631,0.000452905811 9.99976707,0.000452905811 C4.48077108,0.000452905811 8.03212833e-06,4.47223647 8.03212833e-06,9.98017234 C8.03212833e-06,15.4881483 4.48077108,19.9599319 9.99976707,19.9599319" id="Fill-1" fill="#A7D041" mask="url(#mask-2)"></path>
        </g>
        <path d="M9.97244578,15.2005251 C10.4369036,15.2005251 10.7920843,14.8460561 10.7920843,14.3825291 L10.7920843,9.20176754 C10.7920843,8.73824048 10.4369036,8.38377154 9.97244578,8.38377154 C9.50798795,8.38377154 9.15280723,8.73824048 9.15280723,9.20176754 L9.15280723,14.3825291 C9.15280723,14.8460561 9.53529719,15.2005251 9.97244578,15.2005251" id="Fill-4" fill="#A7D041"></path>
        <path d="M9.97244578,7.02042084 C10.4369036,7.02042084 10.7920843,6.6659519 10.7920843,6.20242485 L10.7920843,5.38438878 C10.7920843,4.92086172 10.4369036,4.56639279 9.97244578,4.56639279 C9.50798795,4.56639279 9.15280723,4.92086172 9.15280723,5.38438878 L9.15280723,6.20242485 C9.15280723,6.6659519 9.53529719,7.02042084 9.97244578,7.02042084" id="Fill-6" fill="#A7D041"></path>
    </g>
</svg>