
<svg width="30px" height="30px" viewBox="841 217 30 30" version="1.1" xmlns="http://www.w3.org/2000/svg" xmlns:xlink="http://www.w3.org/1999/xlink">
    <!-- Generator: Sketch 41 (35326) - http://www.bohemiancoding.com/sketch -->
    <desc>Created with Sketch.</desc>
    <defs></defs>
    <path d="M861.769231,229.692308 C861.769231,234.145433 858.145433,237.769231 853.692308,237.769231 C849.239183,237.769231 845.615385,234.145433 845.615385,229.692308 C845.615385,225.239183 849.239183,221.615385 853.692308,221.615385 C858.145433,221.615385 861.769231,225.239183 861.769231,229.692308 L861.769231,229.692308 Z M871,244.692308 C871,244.079327 870.747596,243.484375 870.332933,243.069712 L864.149038,236.885817 C865.609375,234.776442 866.384615,232.252404 866.384615,229.692308 C866.384615,222.679087 860.705529,217 853.692308,217 C846.679087,217 841,222.679087 841,229.692308 C841,236.705529 846.679087,242.384615 853.692308,242.384615 C856.252404,242.384615 858.776442,241.609375 860.885817,240.149038 L867.069712,246.314904 C867.484375,246.747596 868.079327,247 868.692308,247 C869.954327,247 871,245.954327 871,244.692308 L871,244.692308 Z" id="search-icon" stroke="none" fill="#A7D041" fill-rule="evenodd"></path>
</svg>